<svg xmlns="http://www.w3.org/2000/svg" width="42.081" height="42.067" viewBox="0 0 42.081 42.067">
  <g id="Group_73449" data-name="Group 73449" transform="translate(0 0)">
    <path id="Path_139621" data-name="Path 139621" d="M979.767,770.551a1.006,1.006,0,0,0,.869-1.508l-.337-.583a1,1,0,0,0-1.74,1l.337.584A1,1,0,0,0,979.767,770.551Z" transform="translate(-967.276 -760.935)" fill="#2d7abe"/>
    <path id="Path_139622" data-name="Path 139622" d="M974.486,780.638a1,1,0,0,0-1-1h-.675a1,1,0,1,0,0,2.008h.674A1,1,0,0,0,974.486,780.638Z" transform="translate(-966.71 -761.933)" fill="#2d7abe"/>
    <path id="Path_139623" data-name="Path 139623" d="M980.449,790.7a1.006,1.006,0,0,0-1.373.368l-.336.583a1,1,0,0,0,1.74,1.005l.336-.584A1,1,0,0,0,980.449,790.7Z" transform="translate(-967.292 -762.868)" fill="#2d7abe"/>
    <path id="Path_139624" data-name="Path 139624" d="M997.911,780.43a1,1,0,0,0,1.005,1.005h.673a1,1,0,0,0,0-2.009h-.673A1,1,0,0,0,997.911,780.43Z" transform="translate(-968.942 -761.915)" fill="#2d7abe"/>
    <path id="Path_139625" data-name="Path 139625" d="M991.98,770.312a1,1,0,0,0,1.373-.369l.337-.583a1,1,0,1,0-1.739-1l-.337.584A1.006,1.006,0,0,0,991.98,770.312Z" transform="translate(-968.392 -760.926)" fill="#2d7abe"/>
    <path id="Path_139626" data-name="Path 139626" d="M986.194,769.487a1.34,1.34,0,0,0,1.339-1.339V767.3a1.339,1.339,0,0,0-2.679,0v.845A1.34,1.34,0,0,0,986.194,769.487Z" transform="translate(-967.826 -760.764)" fill="#3c4652"/>
    <path id="Path_139627" data-name="Path 139627" d="M974.335,775.128l.731.422a1.339,1.339,0,1,0,1.341-2.318l-.731-.422a1.339,1.339,0,0,0-1.341,2.319Z" transform="translate(-966.87 -761.334)" fill="#3c4652"/>
    <path id="Path_139628" data-name="Path 139628" d="M975.244,785.37l-.732.422a1.339,1.339,0,0,0,1.339,2.32l.732-.422a1.339,1.339,0,1,0-1.339-2.319Z" transform="translate(-966.885 -762.408)" fill="#3c4652"/>
    <path id="Path_139629" data-name="Path 139629" d="M986.55,791.086a1.34,1.34,0,0,0-1.34,1.34v.844a1.339,1.339,0,1,0,2.679,0v-.844A1.339,1.339,0,0,0,986.55,791.086Z" transform="translate(-967.857 -762.912)" fill="#3c4652"/>
    <path id="Path_139630" data-name="Path 139630" d="M996.822,772.5l-.732.422a1.339,1.339,0,0,0,.671,2.5,1.326,1.326,0,0,0,.668-.18l.732-.422a1.339,1.339,0,1,0-1.34-2.319Z" transform="translate(-968.73 -761.308)" fill="#3c4652"/>
    <path id="Path_139631" data-name="Path 139631" d="M991.821,778.214H987.95a2.52,2.52,0,0,0-2.021-1.021c-.054,0-.1.013-.158.016l-2.412-4.315a1.34,1.34,0,1,0-2.339,1.307l2.561,4.582a2.528,2.528,0,0,0,4.088,2.779h4.152a1.674,1.674,0,1,0,0-3.348Z" transform="translate(-967.484 -761.298)" fill="#2d7abe"/>
    <path id="Path_139632" data-name="Path 139632" d="M985.313,793.811c-.209.008-.419.016-.63.016a15.1,15.1,0,1,1,15.1-15.1c0,.2-.009.408-.018.611a12.758,12.758,0,0,1,3.3.878c.037-.492.064-.988.064-1.489a18.448,18.448,0,1,0-18.447,18.448c.508,0,1.011-.026,1.511-.067A12.806,12.806,0,0,1,985.313,793.811Z" transform="translate(-966.234 -760.278)" fill="#3c4652"/>
    <path id="Path_139633" data-name="Path 139633" d="M1000.114,783.915a10.225,10.225,0,1,0,10.224,10.225A10.236,10.236,0,0,0,1000.114,783.915Zm-1.68,12.735a.982.982,0,1,1,0,1.964h-4.3a.983.983,0,0,1-.981-.981c0-1.825,1.5-2.643,2.594-3.24,1.184-.646,1.7-1.008,1.7-1.748a1.178,1.178,0,0,0-2.333,0,.982.982,0,0,1-1.964,0,3.136,3.136,0,0,1,6.264,0c0,1.985-1.577,2.845-2.727,3.473-.356.193-.661.365-.906.533Zm7.661-.185H1006v1.167a.983.983,0,0,1-1.966,0v-1.167h-2.78a.981.981,0,0,1-.96-1.194l1.079-4.835a.977.977,0,0,1,1.171-.746.991.991,0,0,1,.75,1.171l-.814,3.641h1.555v-3.853a.983.983,0,1,1,1.966,0V794.5h.091a.982.982,0,0,1,0,1.963Z" transform="translate(-968.257 -762.299)" fill="#2d7abe"/>
  </g>
</svg>
