<svg xmlns="http://www.w3.org/2000/svg" width="41.078" height="33.82" viewBox="0 0 41.078 33.82">
  <g id="train-station-ico" transform="translate(-17.481 -39.236)">
    <g id="Group_77001" data-name="Group 77001" transform="translate(18.043 39.747)">
      <path id="Path_141208" data-name="Path 141208" d="M212.337,70.351h2.246V92.626h-4.907Z" transform="translate(-174.528 -65.081)" fill="#818181"/>
      <g id="Group_76995" data-name="Group 76995" transform="translate(22.702 5.92)">
        <g id="Group_76994" data-name="Group 76994">
          <circle id="Ellipse_9646" data-name="Ellipse 9646" cx="3.281" cy="3.281" r="3.281" fill="#fda400"/>
        </g>
      </g>
      <path id="Path_141209" data-name="Path 141209" d="M134.546,41.986v2.149l18.762,6.3V46.152Z" transform="translate(-113.357 -41.986)" fill="#136cb2"/>
      <g id="Group_76996" data-name="Group 76996" transform="translate(1.888 27.239)">
        <path id="Path_141210" data-name="Path 141210" d="M144.842,188.587h17.413v6.07H144.842Z" transform="translate(-123.628 -188.587)" fill="#5b5b5b"/>
        <path id="Path_141211" data-name="Path 141211" d="M32.33,208.331a1.661,1.661,0,0,0-1.661,1.661v.061h3.323v-.061A1.661,1.661,0,0,0,32.33,208.331Z" transform="translate(-30.668 -204.663)" fill="#5b5b5b"/>
        <path id="Path_141212" data-name="Path 141212" d="M103.245,208.331a1.661,1.661,0,0,0-1.661,1.661v.061h3.323v-.061A1.661,1.661,0,0,0,103.245,208.331Z" transform="translate(-88.408 -204.663)" fill="#5b5b5b"/>
      </g>
      <g id="Group_76997" data-name="Group 76997" transform="translate(0 9.118)">
        <path id="Path_141213" data-name="Path 141213" d="M40.922,155.584c-.008-.37-.026-.749-.052-1.133-.7,0-19.554,0-20.251,0-.026.384-.044.763-.052,1.133,0,0-.141,3.463,0,4.452a2.227,2.227,0,0,0,1.06,1.908,37.182,37.182,0,0,0,9.117,2.351,37.182,37.182,0,0,0,9.117-2.351,2.227,2.227,0,0,0,1.06-1.908c.141-.989,0-4.452,0-4.452Z" transform="translate(-20.505 -142.671)" fill="#136cb2"/>
        <path id="Path_141214" data-name="Path 141214" d="M30.853,106.917h.789c1.82-4.009,9.034-4.081,9.731-4.078a29.807,29.807,0,0,0-1.618-7.856,5.376,5.376,0,0,0-3.282-2.954,14.566,14.566,0,0,0-10.452,0,5.376,5.376,0,0,0-3.282,2.954,29.807,29.807,0,0,0-1.618,7.856c.7,0,7.911.069,9.731,4.078Z" transform="translate(-21.007 -91.059)" fill="#cbd0ca"/>
      </g>
      <g id="Group_77000" data-name="Group 77000" transform="translate(2.521 23.134)">
        <g id="Group_76998" data-name="Group 76998">
          <circle id="Ellipse_9647" data-name="Ellipse 9647" cx="1.272" cy="1.272" r="1.272" fill="#fda400"/>
        </g>
        <g id="Group_76999" data-name="Group 76999" transform="translate(12.894)">
          <circle id="Ellipse_9648" data-name="Ellipse 9648" cx="1.272" cy="1.272" r="1.272" fill="#fda400"/>
        </g>
      </g>
      <path id="Path_141215" data-name="Path 141215" d="M39.289,121.222v-5.506H33.834a28.037,28.037,0,0,0-1.263,5.506Z" transform="translate(-30.329 -102.016)" fill="#5b5b5b"/>
      <path id="Path_141216" data-name="Path 141216" d="M89.224,121.222a28.037,28.037,0,0,0-1.263-5.506H82.505v5.506Z" transform="translate(-70.985 -102.016)" fill="#5b5b5b"/>
    </g>
    <g id="Group_77002" data-name="Group 77002" transform="translate(17.481 39.236)">
      <path id="Path_141217" data-name="Path 141217" d="M18.814,108.53c.86.626,7.577,2.449,9.417,2.449s8.557-1.823,9.418-2.449a2.712,2.712,0,0,0,1.265-2.249,44.4,44.4,0,0,0,0-4.541,30.176,30.176,0,0,0-1.7-9.149,5.855,5.855,0,0,0-3.582-3.257,15.15,15.15,0,0,0-10.812,0,5.854,5.854,0,0,0-3.582,3.257,30.158,30.158,0,0,0-1.7,9.144,44.656,44.656,0,0,0,0,4.546,2.712,2.712,0,0,0,1.265,2.249ZM20.2,92.941a4.849,4.849,0,0,1,2.982-2.65,14.144,14.144,0,0,1,10.092,0,4.85,4.85,0,0,1,2.982,2.651,29.055,29.055,0,0,1,1.547,7.179c-1.9.062-7.6.543-9.5,4.07h-.156c-1.895-3.526-7.6-4.009-9.5-4.07A29.059,29.059,0,0,1,20.2,92.941Zm-1.638,8.826c0-.206.013-.415.023-.625,1.746.06,7.3.509,8.784,3.769a.511.511,0,0,0,.465.3h.789a.511.511,0,0,0,.465-.3c1.478-3.255,7.037-3.708,8.784-3.769.01.21.018.418.023.625v.009a42.475,42.475,0,0,1,0,4.359c-.126.882-.207,1.1-.855,1.567a37.481,37.481,0,0,1-8.817,2.254,37.477,37.477,0,0,1-8.816-2.254c-.648-.471-.729-.685-.855-1.567a42.582,42.582,0,0,1,0-4.369Z" transform="translate(-17.481 -79.214)"/>
      <path id="Path_141218" data-name="Path 141218" d="M32.83,167.312a1.783,1.783,0,1,0-1.783-1.783A1.785,1.785,0,0,0,32.83,167.312Zm0-2.544a.761.761,0,1,1-.761.761A.762.762,0,0,1,32.83,164.767Z" transform="translate(-28.527 -140.611)"/>
      <path id="Path_141219" data-name="Path 141219" d="M102.225,167.312a1.783,1.783,0,1,0-1.783-1.783A1.785,1.785,0,0,0,102.225,167.312Zm0-2.544a.761.761,0,1,1-.761.761A.762.762,0,0,1,102.225,164.767Z" transform="translate(-85.028 -140.611)"/>
      <path id="Path_141220" data-name="Path 141220" d="M61.765,101.694H66.81v1.022H61.765Z" transform="translate(-53.537 -90.089)"/>
      <path id="Path_141221" data-name="Path 141221" d="M37.285,118.983v-5.506a.511.511,0,0,0-.511-.511H31.319a.511.511,0,0,0-.482.343,28.615,28.615,0,0,0-1.287,5.61.511.511,0,0,0,.507.576h6.718A.511.511,0,0,0,37.285,118.983Zm-1.022-.511H30.642a27.668,27.668,0,0,1,1.043-4.484h4.578v4.484Z" transform="translate(-27.303 -99.266)"/>
      <path id="Path_141222" data-name="Path 141222" d="M79.479,113.477v5.506a.511.511,0,0,0,.511.511h6.718a.511.511,0,0,0,.507-.576,28.612,28.612,0,0,0-1.287-5.61.511.511,0,0,0-.482-.343H79.99A.511.511,0,0,0,79.479,113.477Zm1.022.511h4.578a27.663,27.663,0,0,1,1.043,4.484H80.5Z" transform="translate(-67.96 -99.267)"/>
      <path id="Path_141223" data-name="Path 141223" d="M158.32,79.267H157.3V81.79c-.064.22.454.641.728.463l1.649-.773-.434-.925-.921.432Z" transform="translate(-131.316 -71.829)"/>
      <path id="Path_141224" data-name="Path 141224" d="M60.395,43.414l-18.9-4.166a.511.511,0,0,0-.621.5V41.9a.511.511,0,0,0,.349.485L45.7,43.874v1.42a3.792,3.792,0,1,0,1.022,0V44.215L57.2,47.708,54.925,66.781H43.682a.511.511,0,0,0-.511.511v4.742H39.194a2.17,2.17,0,0,0-4.272,0h-8.9a2.153,2.153,0,0,0-.071-.288,2.17,2.17,0,0,0-4.2.288H20.23v1.022H43.683a.511.511,0,0,0,.511-.511V67.8H60.285a.511.511,0,0,0,.511-.511V43.913a.511.511,0,0,0-.4-.5ZM22.823,71.968a1.15,1.15,0,0,1,2.117,0Zm13.176,0a1.15,1.15,0,0,1,2.117,0ZM48.983,49.051a2.771,2.771,0,1,1-2.771-2.771A2.774,2.774,0,0,1,48.983,49.051Zm10.791,17.73h-3.82l2.239-18.743,1.582.527Zm0-19.293L41.9,41.528V40.383l17.879,3.941Z" transform="translate(-19.719 -39.236)"/>
    </g>
  </g>
</svg>
